<svg xmlns="http://www.w3.org/2000/svg" xmlns:xlink="http://www.w3.org/1999/xlink" width="400" zoomAndPan="magnify" viewBox="0 0 300 299.999988" height="400" preserveAspectRatio="xMidYMid meet" version="1.0"><defs><clipPath id="86b76bd9e5"><path d="M 101 6.078125 L 192 6.078125 L 192 82 L 101 82 Z M 101 6.078125 " clip-rule="nonzero"/></clipPath><clipPath id="293c11ab11"><path d="M 26.511719 76 L 266.511719 76 L 266.511719 294 L 26.511719 294 Z M 26.511719 76 " clip-rule="nonzero"/></clipPath></defs><g clip-path="url(#86b76bd9e5)"><path fill="#8c8072" d="M 170.25 81.660156 C 168.945312 81.660156 167.894531 80.609375 167.894531 79.300781 C 167.894531 72.675781 171.519531 63.726562 175.699219 53.382812 C 180.726562 40.992188 186.394531 27 186.726562 14.484375 C 185.035156 13.398438 180.15625 10.96875 170.25 10.96875 C 157.585938 10.96875 148.730469 23.925781 148.636719 24.054688 C 147.773438 25.363281 145.601562 25.363281 144.734375 24.054688 C 144.644531 23.925781 135.789062 10.96875 123.121094 10.96875 C 113.253906 10.96875 108.359375 13.378906 106.648438 14.484375 C 106.976562 27.019531 112.648438 40.992188 117.671875 53.382812 C 121.851562 63.726562 125.480469 72.675781 125.480469 79.300781 C 125.480469 80.609375 124.429688 81.660156 123.121094 81.660156 C 121.816406 81.660156 120.765625 80.609375 120.765625 79.300781 C 120.765625 73.597656 117.140625 64.628906 113.292969 55.167969 C 107.953125 41.988281 101.914062 27.058594 101.914062 13.324219 C 101.914062 12.699219 102.15625 12.089844 102.613281 11.648438 C 103.167969 11.097656 108.433594 6.253906 123.121094 6.253906 C 134.59375 6.253906 143.042969 14.539062 146.6875 18.882812 C 150.332031 14.539062 158.78125 6.253906 170.25 6.253906 C 184.941406 6.253906 190.207031 11.097656 190.757812 11.648438 C 191.21875 12.089844 191.457031 12.699219 191.457031 13.324219 C 191.457031 27.058594 185.417969 41.988281 180.082031 55.167969 C 176.234375 64.628906 172.605469 73.597656 172.605469 79.300781 C 172.605469 80.609375 171.558594 81.660156 170.25 81.660156 " fill-opacity="1" fill-rule="nonzero"/></g><g clip-path="url(#293c11ab11)"><path fill="#8c8072" d="M 174.964844 279.59375 C 182.75 279.59375 186.820312 282.300781 190.410156 284.695312 C 193.886719 287.015625 196.871094 289.019531 203.238281 289.019531 C 209.589844 289.019531 212.59375 287.015625 216.070312 284.695312 C 219.660156 282.300781 223.746094 279.59375 231.515625 279.59375 C 234.425781 279.59375 237.261719 280.367188 240.023438 281.125 C 246.539062 282.925781 252.742188 284.640625 261.136719 277.164062 C 232.972656 247.730469 220.269531 202.222656 209.019531 161.980469 C 198.433594 124.054688 189.285156 91.230469 170.195312 81.878906 C 155.210938 87.84375 138.164062 87.84375 123.179688 81.878906 C 104.085938 91.230469 94.9375 124.054688 84.351562 161.980469 C 73.105469 202.222656 60.402344 247.730469 32.234375 277.164062 C 40.632812 284.640625 46.835938 282.925781 53.351562 281.125 C 56.113281 280.367188 58.949219 279.59375 61.855469 279.59375 C 69.625 279.59375 73.710938 282.300781 77.300781 284.695312 C 80.78125 287.015625 83.78125 289.019531 90.132812 289.019531 C 96.503906 289.019531 99.484375 287.015625 102.964844 284.695312 C 106.554688 282.300781 110.621094 279.59375 118.410156 279.59375 C 126.195312 279.59375 130.265625 282.300781 133.855469 284.695312 C 137.335938 287.015625 140.335938 289.019531 146.6875 289.019531 C 153.039062 289.019531 156.039062 287.015625 159.519531 284.695312 C 163.109375 282.300781 167.175781 279.59375 174.964844 279.59375 Z M 203.238281 293.734375 C 195.453125 293.734375 191.382812 291.027344 187.792969 288.632812 C 184.316406 286.316406 181.316406 284.308594 174.964844 284.308594 C 168.613281 284.308594 165.613281 286.316406 162.132812 288.632812 C 158.542969 291.027344 154.472656 293.734375 146.6875 293.734375 C 138.898438 293.734375 134.832031 291.027344 131.242188 288.632812 C 127.761719 286.316406 124.761719 284.308594 118.410156 284.308594 C 112.058594 284.308594 109.058594 286.316406 105.578125 288.632812 C 101.988281 291.027344 97.921875 293.734375 90.132812 293.734375 C 82.347656 293.734375 78.277344 291.027344 74.6875 288.632812 C 71.207031 286.316406 68.207031 284.308594 61.855469 284.308594 C 59.574219 284.308594 57.164062 284.972656 54.605469 285.671875 C 47.40625 287.660156 38.421875 290.125 27.191406 278.914062 C 26.75 278.472656 26.511719 277.863281 26.511719 277.238281 C 26.511719 276.613281 26.75 276.003906 27.191406 275.5625 C 55.691406 247.085938 68.503906 201.191406 79.804688 160.726562 C 90.871094 121.054688 100.441406 86.8125 122.164062 77.148438 C 122.753906 76.890625 123.4375 76.871094 124.023438 77.128906 C 138.421875 83.148438 154.953125 83.148438 169.347656 77.128906 C 169.9375 76.871094 170.617188 76.890625 171.207031 77.148438 C 192.929688 86.8125 202.503906 121.054688 213.566406 160.726562 C 224.871094 201.191406 237.683594 247.085938 266.164062 275.5625 C 266.625 276.003906 266.863281 276.613281 266.863281 277.238281 C 266.863281 277.863281 266.625 278.472656 266.164062 278.914062 C 254.953125 290.125 245.96875 287.660156 238.769531 285.671875 C 236.210938 284.972656 233.800781 284.308594 231.515625 284.308594 C 225.164062 284.308594 222.164062 286.316406 218.683594 288.632812 C 215.09375 291.027344 211.027344 293.734375 203.238281 293.734375 " fill-opacity="1" fill-rule="nonzero"/></g><path fill="#8c8072" d="M 174.964844 260.746094 C 173.949219 260.746094 173.03125 260.101562 172.71875 259.085938 C 161.449219 222.453125 160.179688 190.566406 159.078125 162.4375 C 158.320312 143.273438 157.601562 125.140625 153.8125 108.09375 C 153.535156 106.824219 154.328125 105.554688 155.597656 105.277344 C 156.867188 105.003906 158.136719 105.792969 158.414062 107.0625 C 162.296875 124.535156 163.015625 142.871094 163.789062 162.253906 C 164.875 190.109375 166.128906 221.660156 177.210938 257.6875 C 177.597656 258.941406 176.894531 260.246094 175.664062 260.632812 C 175.421875 260.707031 175.183594 260.746094 174.964844 260.746094 " fill-opacity="1" fill-rule="nonzero"/><path fill="#8c8072" d="M 118.410156 260.746094 C 118.1875 260.746094 117.949219 260.707031 117.710938 260.632812 C 116.476562 260.246094 115.777344 258.941406 116.164062 257.6875 C 127.246094 221.660156 128.5 190.109375 129.585938 162.253906 C 130.359375 142.871094 131.074219 124.535156 134.960938 107.0625 C 135.234375 105.792969 136.523438 105.003906 137.777344 105.277344 C 139.046875 105.554688 139.839844 106.824219 139.5625 108.09375 C 135.769531 125.140625 135.050781 143.273438 134.296875 162.4375 C 133.191406 190.566406 131.921875 222.453125 120.65625 259.085938 C 120.34375 260.101562 119.421875 260.746094 118.410156 260.746094 " fill-opacity="1" fill-rule="nonzero"/><path fill="#8c8072" d="M 212.664062 260.746094 C 211.835938 260.746094 211.027344 260.300781 210.605469 259.511719 C 195.140625 231.179688 192.175781 206.953125 189.027344 181.289062 C 186.320312 159.21875 183.523438 136.410156 172.753906 108.425781 C 172.292969 107.210938 172.902344 105.847656 174.117188 105.371094 C 175.332031 104.910156 176.695312 105.515625 177.171875 106.734375 C 188.125 135.25 190.960938 158.371094 193.703125 180.71875 C 196.796875 205.921875 199.707031 229.726562 214.726562 257.265625 C 215.351562 258.40625 214.929688 259.824219 213.789062 260.449219 C 213.4375 260.652344 213.050781 260.746094 212.664062 260.746094 " fill-opacity="1" fill-rule="nonzero"/><path fill="#8c8072" d="M 80.707031 260.746094 C 80.320312 260.746094 79.933594 260.652344 79.585938 260.449219 C 78.445312 259.824219 78.019531 258.40625 78.644531 257.265625 C 93.667969 229.726562 96.578125 205.921875 99.667969 180.71875 C 102.414062 158.371094 105.246094 135.25 116.199219 106.734375 C 116.679688 105.515625 118.042969 104.910156 119.257812 105.371094 C 120.472656 105.847656 121.078125 107.210938 120.621094 108.425781 C 109.851562 136.410156 107.050781 159.21875 104.34375 181.289062 C 101.199219 206.953125 98.234375 231.179688 82.769531 259.511719 C 82.347656 260.300781 81.535156 260.746094 80.707031 260.746094 " fill-opacity="1" fill-rule="nonzero"/></svg>